<?xml version="1.0" standalone="no"?>
<!DOCTYPE svg PUBLIC "-//W3C//DTD SVG 20010904//EN"
 "http://www.w3.org/TR/2001/REC-SVG-20010904/DTD/svg10.dtd">
<svg version="1.0" xmlns="http://www.w3.org/2000/svg"
 width="500.000000pt" height="500.000000pt" viewBox="0 0 500.000000 500.000000"
 preserveAspectRatio="xMidYMid meet">

<g transform="translate(0.000000,500.000000) scale(0.100000,-0.100000)"
fill="#000000" stroke="none">
<path d="M2360 4589 c-429 -23 -866 -197 -1205 -481 -664 -555 -919 -1455
-645 -2281 232 -696 838 -1235 1558 -1382 1014 -208 2010 335 2388 1302 148
378 178 824 82 1238 -137 594 -547 1110 -1103 1388 -335 168 -678 237 -1075
216z m196 -232 c2 -2 1 -18 -2 -35 -6 -31 -8 -32 -63 -32 -31 0 -73 -3 -93 -6
l-38 -7 0 41 0 41 63 4 c62 4 126 1 133 -6z m238 -14 c37 -6 38 -7 33 -41 -4
-19 -8 -36 -10 -38 -1 -2 -44 2 -95 8 l-92 12 0 39 0 40 63 -7 c34 -4 79 -10
101 -13z m-512 -29 c2 -21 0 -37 -6 -39 -68 -17 -178 -30 -181 -21 -2 6 -6 23
-9 38 -6 28 -12 26 119 52 61 12 73 8 77 -30z m756 -26 c34 -10 62 -22 62 -27
0 -4 -5 -21 -10 -38 l-11 -29 -89 25 c-79 22 -90 28 -90 47 0 60 9 62 138 22z
m-1024 -33 l7 -31 -87 -28 c-84 -27 -88 -28 -101 -10 -18 25 -16 50 5 59 54
23 158 52 163 47 4 -4 10 -21 13 -37z m1291 -72 c28 -14 51 -27 53 -28 2 -2
-4 -16 -14 -32 -10 -15 -19 -29 -19 -31 -1 -1 -151 62 -173 74 -1 0 5 17 13
37 l15 36 37 -16 c21 -8 61 -27 88 -40z m-1547 -15 c6 -17 11 -32 9 -33 -26
-19 -163 -83 -169 -79 -4 3 -15 18 -22 33 l-15 28 82 41 c45 23 87 41 92 42 6
0 16 -14 23 -32z m1765 -109 l77 -50 -22 -30 c-12 -16 -28 -27 -35 -25 -11 4
-125 79 -142 92 -8 7 22 64 33 64 7 0 47 -23 89 -51z m-2009 -15 c10 -14 16
-29 14 -34 -3 -9 -140 -110 -148 -109 -3 0 -15 13 -27 28 l-22 28 77 56 c42
31 80 57 83 57 4 0 14 -12 23 -26z m2248 -173 l48 -45 -26 -27 -27 -28 -68 62
c-38 34 -69 66 -69 71 0 6 10 20 22 33 l22 23 25 -22 c14 -12 47 -43 73 -67z
m-2462 4 l24 -25 -66 -65 c-37 -36 -70 -65 -75 -65 -5 0 -20 11 -32 24 l-22
24 67 66 c36 36 70 66 74 66 3 0 17 -11 30 -25z m2652 -203 l42 -53 -30 -24
c-16 -13 -32 -20 -35 -17 -4 4 -31 37 -62 73 l-55 66 26 26 26 27 24 -22 c12
-12 42 -46 64 -76z m-2844 5 l22 -23 -46 -59 c-25 -33 -49 -66 -54 -74 -7 -14
-11 -14 -35 -1 -15 8 -30 20 -32 27 -6 14 97 152 113 153 6 0 20 -10 32 -23z
m2985 -205 c26 -42 47 -81 47 -84 0 -8 -60 -41 -65 -36 -11 12 -96 160 -94
162 19 14 55 36 59 36 3 0 27 -35 53 -78z m-3123 -33 c0 -15 -82 -159 -90
-159 -17 0 -60 23 -60 32 0 11 36 83 67 131 l24 38 29 -18 c17 -9 30 -20 30
-24z m3255 -227 l35 -83 -23 -8 c-12 -4 -29 -10 -37 -13 -11 -3 -25 19 -51 81
l-36 86 31 17 c17 9 34 13 39 9 4 -4 23 -44 42 -89z m-3408 6 c15 -7 30 -13
31 -14 9 -6 -63 -174 -74 -174 -7 0 -24 4 -38 10 l-26 9 30 82 c42 112 35 105
77 87z m2258 -43 c17 -7 39 -19 49 -27 18 -15 18 -17 -15 -72 -35 -59 -36 -59
-96 -35 -29 12 -36 11 -60 -7 -38 -28 -43 -84 -12 -113 36 -33 59 -28 59 14
l0 35 75 0 75 0 0 -73 c0 -81 -4 -88 -70 -123 -51 -27 -162 -25 -215 3 -22 12
-50 32 -62 45 -81 87 -69 254 24 325 66 50 169 62 248 28z m491 -11 c158 -75
156 -307 -3 -385 -65 -32 -170 -33 -228 -2 -131 69 -166 225 -74 336 71 86
190 106 305 51z m-2086 -103 c0 -120 2 -131 21 -144 27 -19 58 -10 70 20 5 13
9 76 9 139 l0 114 75 0 75 0 0 -145 c0 -162 -10 -198 -70 -248 -89 -75 -242
-53 -307 44 -27 41 -28 47 -31 196 l-4 153 81 0 81 0 0 -129z m569 37 l51 -93
0 93 0 92 80 0 80 0 0 -215 0 -215 -88 0 -87 0 -50 90 -50 91 -3 -91 -3 -90
-79 0 -80 0 0 215 0 215 89 0 90 0 50 -92z m631 32 l0 -60 -85 0 c-78 0 -85
-2 -85 -20 0 -18 7 -20 75 -20 l75 0 0 -60 0 -60 -75 0 c-60 0 -75 -3 -75 -15
0 -12 17 -15 90 -15 l90 0 0 -60 0 -60 -170 0 -170 0 0 215 0 215 165 0 165 0
0 -60z m1629 -170 c12 -50 19 -95 16 -100 -3 -6 -21 -10 -39 -10 -32 0 -32 0
-51 78 -10 42 -20 82 -22 88 -4 11 35 31 63 33 6 1 21 -40 33 -89z m-3562 -5
c19 -5 20 -10 12 -38 -5 -18 -14 -60 -20 -94 l-11 -61 -36 5 c-21 3 -38 7 -39
8 -4 2 16 110 28 158 8 29 14 37 27 33 9 -2 27 -7 39 -11z m3608 -242 c13
-137 14 -128 -27 -131 -41 -4 -40 -6 -53 125 -6 58 -5 62 17 66 56 11 56 11
63 -60z m-3641 -110 c-3 -49 -7 -94 -10 -100 -2 -7 -19 -13 -39 -13 l-35 0 0
63 c0 34 3 79 6 100 6 35 8 37 45 37 l39 0 -6 -87z m3656 -142 c0 -21 -3 -66
-6 -100 l-7 -61 -40 0 -40 0 7 61 c3 34 6 79 6 100 0 39 0 39 40 39 40 0 40 0
40 -39z m-1785 20 c33 3 61 3 62 0 2 -3 38 -5 80 -5 43 1 116 -3 163 -8 92
-11 90 -11 200 -3 148 11 466 5 506 -8 44 -16 54 -33 24 -42 -12 -4 -277 -6
-589 -5 -311 1 -597 1 -636 -1 -38 -1 -288 -2 -554 -3 -340 -1 -485 2 -488 10
-5 15 65 34 125 34 28 0 53 4 56 9 3 4 92 9 198 9 212 2 671 12 674 15 2 1 29
0 61 -3 32 -3 85 -2 118 1z m-1867 -153 c11 -101 9 -108 -40 -108 -28 0 -28
-1 -43 127 -8 64 -3 73 39 73 l33 0 11 -92z m3608 -106 l21 -7 -18 -89 c-10
-48 -20 -90 -23 -93 -3 -3 -21 -2 -41 1 -27 5 -35 11 -31 24 4 15 14 63 32
150 4 22 20 26 60 14z m-3562 -164 l22 -88 -34 -11 c-18 -6 -36 -8 -39 -5 -3
3 -16 45 -28 93 l-22 88 21 7 c49 15 57 7 80 -84z m1165 36 c54 -45 29 -77
-26 -34 -14 11 -35 20 -47 20 -30 0 -66 -27 -66 -51 0 -21 18 -30 95 -48 55
-13 85 -40 85 -78 0 -55 -48 -93 -119 -93 -43 0 -95 34 -104 70 -7 29 26 26
57 -5 37 -37 92 -30 116 15 15 27 -9 46 -68 54 -69 9 -102 37 -102 85 0 82
111 122 179 65z m341 1 c0 -23 -4 -25 -45 -25 l-45 0 0 -130 c0 -123 -1 -130
-20 -130 -19 0 -20 7 -20 129 l0 130 -47 3 c-41 3 -48 6 -51 26 -3 22 -2 22
112 22 l116 0 0 -25z m320 3 c55 -38 75 -73 75 -133 0 -159 -208 -215 -288
-78 -34 59 -20 150 30 195 47 43 132 50 183 16z m353 -6 c14 -13 27 -36 30
-50 7 -37 -17 -90 -47 -104 -30 -13 -32 -21 -11 -38 9 -7 29 -30 46 -52 l31
-38 -29 0 c-24 0 -40 13 -87 70 -31 38 -54 74 -51 80 3 5 24 10 46 10 32 0 41
4 51 25 8 19 8 31 0 50 -10 22 -18 25 -62 25 l-50 0 0 -130 0 -130 -25 0 -25
0 0 156 0 156 79 -3 c66 -3 84 -8 104 -27z m302 3 c0 -18 -8 -20 -72 -23 l-73
-3 0 -39 0 -40 70 0 c68 0 70 -1 70 -25 0 -24 -2 -25 -71 -25 l-70 0 3 -42 3
-43 73 -3 c64 -3 72 -5 72 -22 0 -18 -7 -20 -95 -20 l-95 0 0 155 0 156 93 -3
c84 -3 92 -5 92 -23z m1004 -136 c17 -6 31 -14 31 -17 0 -12 -50 -157 -59
-170 -7 -12 -14 -11 -40 2 -17 9 -31 20 -31 25 0 5 11 40 25 77 14 38 28 75
30 82 5 15 4 15 44 1z m-3400 -154 c19 -47 32 -87 30 -89 -9 -8 -48 -26 -57
-26 -5 0 -23 30 -39 68 -47 104 -48 111 -21 121 46 19 52 13 87 -74z m3330
-121 c2 -1 -18 -42 -44 -89 l-47 -86 -31 20 c-18 12 -31 25 -30 29 1 4 20 43
43 85 l42 77 31 -16 c18 -9 34 -18 36 -20z m-3198 -133 c42 -67 42 -66 -5 -92
-23 -14 -28 -9 -82 83 l-43 73 32 17 c37 20 32 24 98 -81z m3059 -109 c0 -10
-111 -152 -118 -152 -5 0 -19 11 -31 24 -26 28 -27 26 42 113 l48 63 30 -22
c16 -12 29 -24 29 -26z m-2916 -89 c31 -37 56 -70 56 -73 0 -4 -12 -17 -26
-31 l-26 -24 -21 26 c-12 15 -41 49 -65 77 l-42 50 27 21 c16 11 31 21 34 21
3 0 31 -30 63 -67z m2675 -196 l-72 -68 -23 22 c-13 13 -24 27 -24 32 0 5 30
37 68 72 l67 63 28 -26 29 -27 -73 -68z m-2485 0 l68 -63 -25 -29 -25 -29 -59
52 c-89 77 -90 78 -63 107 13 14 26 25 29 25 3 -1 37 -29 75 -63z m2342 -121
c-1 -6 -36 -34 -78 -63 l-76 -53 -16 24 c-8 14 -17 29 -18 34 -2 5 31 34 72
64 l75 55 22 -26 c12 -14 21 -30 19 -35z m-2103 -57 c26 -17 47 -34 47 -38 0
-5 -20 -38 -36 -59 -2 -3 -117 70 -158 99 -5 4 1 21 14 38 l22 32 31 -21 c18
-12 53 -35 80 -51z m1861 -64 c9 -13 16 -28 16 -32 0 -5 -39 -28 -86 -51 -96
-48 -102 -47 -108 19 -1 10 127 85 150 88 7 0 19 -10 28 -24z m-1580 -86 c8
-7 -10 -69 -21 -69 -6 0 -166 71 -172 76 -3 3 3 20 12 39 l16 34 78 -36 c43
-19 82 -39 87 -44z m1333 -30 c7 -18 10 -36 7 -40 -7 -11 -172 -64 -179 -57
-3 3 -10 19 -14 36 l-9 31 86 30 c48 16 89 30 92 30 3 1 11 -13 17 -30z
m-1158 -24 c46 -14 86 -26 88 -28 2 -2 0 -18 -3 -35 -4 -22 -12 -32 -24 -32
-14 0 -101 23 -167 45 -9 3 -9 13 -1 39 6 20 14 36 17 36 3 0 44 -12 90 -25z
m897 -60 c3 -20 5 -38 2 -40 -6 -6 -181 -36 -185 -31 -2 2 -6 19 -10 39 l-5
35 48 7 c27 4 65 11 84 15 56 13 59 12 66 -25z m-573 -2 c37 -6 37 -6 31 -42
-4 -20 -7 -37 -8 -37 -2 -2 -150 16 -172 21 -17 4 -19 10 -16 41 l4 36 62 -6
c33 -4 78 -10 99 -13z m307 -43 l0 -40 -100 0 -100 0 0 40 0 40 100 0 100 0 0
-40z"/>
<path d="M3405 3025 c-14 -13 -25 -36 -25 -50 0 -31 41 -75 70 -75 31 0 60 35
60 73 0 38 -7 50 -37 66 -31 16 -41 14 -68 -14z"/>
<path d="M2462 2063 c-80 -39 -81 -157 -2 -198 37 -19 63 -19 100 0 41 21 60
53 60 100 0 49 -22 83 -66 101 -42 18 -51 17 -92 -3z"/>
</g>
</svg>
